PathFileType	4	(X/Y/Z)	/Users/itak/Documents/Research/Walk-IL/dataset/trc/00186_00008.trc
DataRate	CameraRate	NumFrames	NumMarkers	Units	OrigDataRate	OrigDataStartFrame	OrigNumFrames
100.000000	100.000000	4	53	mm	100.000000	97	780
Frame#	Time	RPSI			LPSI			L3			STRN			T10			C7			CLAV			RBAK			LBAK			LSHO			LUPA			LAEL			LAOL			LWTS			LWPS			LFRA			LIFD			LHPS			LHTS			RSHO			RUPA			RAEL			RAOL			RWTS			RWPS			RFRA			RIFD			RHTS			RHPS			RBHD			LFHD			RFHD			LBHD			LHIP			RHIP			RASI			LASI			LKNE			LTHI			LANK			LTIP			LTOE			LMT1			LMT5			LHEE			RKNE			RTHI			RANK			RTIP			RTOE			RMT1			RMT5			RHEE			
		X1	Y1	Z1	X2	Y2	Z2	X3	Y3	Z3	X4	Y4	Z4	X5	Y5	Z5	X6	Y6	Z6	X7	Y7	Z7	X8	Y8	Z8	X9	Y9	Z9	X10	Y10	Z10	X11	Y11	Z11	X12	Y12	Z12	X13	Y13	Z13	X14	Y14	Z14	X15	Y15	Z15	X16	Y16	Z16	X17	Y17	Z17	X18	Y18	Z18	X19	Y19	Z19	X20	Y20	Z20	X21	Y21	Z21	X22	Y22	Z22	X23	Y23	Z23	X24	Y24	Z24	X25	Y25	Z25	X26	Y26	Z26	X27	Y27	Z27	X28	Y28	Z28	X29	Y29	Z29	X30	Y30	Z30	X31	Y31	Z31	X32	Y32	Z32	X33	Y33	Z33	X34	Y34	Z34	X35	Y35	Z35	X36	Y36	Z36	X37	Y37	Z37	X38	Y38	Z38	X39	Y39	Z39	X40	Y40	Z40	X41	Y41	Z41	X42	Y42	Z42	X43	Y43	Z43	X44	Y44	Z44	X45	Y45	Z45	X46	Y46	Z46	X47	Y47	Z47	X48	Y48	Z48	X49	Y49	Z49	X50	Y50	Z50	X51	Y51	Z51	X52	Y52	Z52	X53	Y53	Z53	

98	0.97	103.878303527832	1021.640563964844	1413.676513671875	74.94459533691406	1019.220642089844	1295.760986328125	92.661376953125	1058.219482421875	1359.111328125	361.8690795898438	1243.896240234375	1281.988037109375	73.68943786621094	1225.27685546875	1362.2177734375	162.0616455078125	1484.863525390625	1315.87548828125	343.5155639648438	1359.857788085938	1271.142333984375	108.7780532836914	1323.619140625	1450.165649414062	123.7050933837891	1458.897705078125	1224.3828125	171.9444885253906	1431.8623046875	1129.144165039062	95.83114624023438	1305.534545898438	1083.118286132812	60.58865737915039	1093.538940429688	1080.433227539062	51.84592819213867	1084.635498046875	1171.256469726562	126.7245788574219	842.5455932617188	1076.217895507812	32.9778938293457	840.3529663085938	1078.738403320312	45.12390899658203	982.7686767578125	1070.902465820312	111.3832168579102	659.8894653320312	1105.390258789062	39.41190719604492	767.7591552734375	1077.51123046875	109.5151138305664	763.35205078125	1059.468383789062	269.9808044433594	1465.003662109375	1473.634765625	264.5464782714844	1406.186401367188	1551.06103515625	244.6198272705078	1128.399047851562	1641.83544921875	212.038330078125	1108.1689453125	1552.444091796875	362.0249633789062	889.8506469726562	1613.432495117188	303.7894287109375	884.8047485351562	1681.293579101562	270.6119689941406	1057.213256835938	1661.481079101562	352.2129821777344	701.0408935546875	1607.46728515625	383.6290283203125	794.1617431640625	1625.931396484375	325.8548583984375	801.0203857421875	1681.759643554688	266.3426818847656	1638.163818359375	1361.89794921875	334.9974060058594	1667.9033203125	1157.55029296875	405.9718322753906	1677.821655273438	1265.449584960938	184.7912445068359	1634.515869140625	1251.71630859375	148.0960388183594	961.4806518554688	1153.640258789062	276.9380798339844	975.9933471679688	1505.19970703125	347.5752563476562	997.9655151367188	1435.9775390625	283.5352172851562	994.9452514648438	1186.288330078125	388.5235290527344	516.4055786132812	1098.149047851562	306.9013366699219	636.9076538085938	1099.033325195312	515.8098754882812	54.37561798095703	1054.2119140625	441.5349426269531	292.2862548828125	1063.231201171875	691.341552734375	157.5329284667969	986.8839721679688	677.393310546875	133.7176818847656	1048.481689453125	588.0935668945312	91.24942016601562	974.7664794921875	503.706298828125	38.66564178466797	1136.144165039062	179.7102813720703	487.3283081054688	1499.1591796875	290.2334289550781	742.748779296875	1506.226196289062	-57.6507453918457	47.07826232910156	1539.168334960938	151.1292419433594	364.6676025390625	1490.271484375	161.8271331787109	47.31038665771484	1494.417358398438	105.1040954589844	45.83259201049805	1450.90283203125	56.50886154174805	39.9657096862793	1572.446655273438	-113.9896469116211	49.4598388671875	1472.739013671875	
99	0.98	111.0868453979492	1019.49755859375	1409.798095703125	82.29620361328125	1016.991333007812	1291.896850585938	100.0224609375	1055.961791992188	1355.2646484375	368.8006591796875	1242.04833984375	1277.502807617188	80.73420715332031	1222.809936523438	1358.489013671875	168.4480285644531	1482.595703125	1311.603637695312	350.1156005859375	1357.912109375	1266.47119140625	115.7954330444336	1321.427734375	1446.256958007812	129.8296813964844	1456.380004882812	1220.269775390625	177.7679443359375	1429.325805664062	1124.912841796875	101.4179840087891	1302.876098632812	1079.540405273438	65.64594268798828	1091.629516601562	1077.493774414062	57.78789901733398	1082.402221679688	1168.522827148438	128.0793609619141	839.3615112304688	1073.138549804688	34.45227813720703	838.7192993164062	1076.730102539062	48.65875244140625	980.81396484375	1068.28515625	110.0243072509766	656.9960327148438	1103.016845703125	39.66928482055664	766.0360717773438	1075.588745117188	109.3857040405273	760.3506469726562	1056.815307617188	276.8270874023438	1463.16162109375	1469.096801757812	271.7461547851562	1404.378784179688	1546.608154296875	252.9456176757812	1126.400512695312	1637.6005859375	220.2564849853516	1106.140991210938	1548.318359375	371.1349487304688	888.4357299804688	1609.119750976562	312.9621887207031	883.026123046875	1677.062622070312	279.2730102539062	1055.406982421875	1657.24609375	361.9435119628906	699.5599975585938	1603.42138671875	393.0539855957031	792.7872924804688	1621.64990234375	335.3995056152344	799.4945068359375	1677.632446289062	272.07568359375	1636.07763671875	1357.114379882812	340.1604919433594	1665.973999023438	1152.636596679688	411.3453369140625	1676.2705078125	1260.345947265625	190.3471221923828	1632.059814453125	1247.20947265625	155.4770812988281	959.2816162109375	1149.822265625	283.89990234375	973.8193359375	1501.485717773438	354.6953735351562	995.6705932617188	1432.335205078125	290.9750366210938	992.6556396484375	1182.501586914062	395.4881591796875	514.5859375	1093.986572265625	313.9083251953125	634.6200561523438	1094.930786132812	526.6515502929688	54.04547882080078	1047.94384765625	450.0341796875	291.2737731933594	1058.227294921875	700.2318115234375	159.0002746582031	978.343505859375	687.4149780273438	134.9728088378906	1040.063598632812	597.4796142578125	91.73488616943359	967.5582885742188	515.87451171875	38.19853973388672	1130.060424804688	184.3634490966797	485.9726867675781	1497.241455078125	296.1678771972656	740.7538452148438	1503.291259765625	-57.33919525146484	48.05888366699219	1539.329956054688	154.7619018554688	363.3767395019531	1488.999877929688	161.7554016113281	47.23025894165039	1494.526733398438	105.1232986450195	45.88540267944336	1451.048217773438	56.51793670654297	39.79911041259766	1572.6435546875	-113.9409484863281	51.19528198242188	1473.022094726562	
100	0.99	118.4411239624023	1017.458251953125	1405.635498046875	89.86006164550781	1014.879089355469	1287.75830078125	107.5493087768555	1053.80908203125	1351.1552734375	375.9165649414062	1240.300048828125	1272.8232421875	87.99231719970703	1220.428466796875	1354.552734375	175.0124664306641	1480.430541992188	1307.1416015625	356.8994140625	1356.060302734375	1261.60546875	123.0003051757812	1319.328125	1442.141723632812	136.1276245117188	1453.956176757812	1215.963134765625	183.7803039550781	1426.881225585938	1120.476440429688	107.1973419189453	1300.309448242188	1075.774658203125	70.92471313476562	1089.824951171875	1074.4296875	63.96491622924805	1080.2255859375	1165.575073242188	129.7474517822266	836.3452758789062	1069.900024414062	36.26357650756836	837.2171630859375	1074.515258789062	52.47576904296875	978.96630859375	1065.459228515625	109.0496978759766	654.3108520507812	1100.519165039062	40.30611801147461	764.4679565429688	1073.498413085938	109.6220245361328	757.5319213867188	1054.014282226562	283.8521728515625	1461.421264648438	1464.364868164062	279.1163635253906	1402.674194335938	1541.961669921875	261.3539123535156	1124.50537109375	1633.095703125	228.5788879394531	1104.218627929688	1543.913208007812	380.3351745605469	887.1384887695312	1604.557861328125	322.1723022460938	881.3505249023438	1672.513793945312	287.9749450683594	1053.67529296875	1652.738037109375	371.8268737792969	698.182861328125	1599.04638671875	402.5945739746094	791.5342407226562	1617.118774414062	344.9840698242188	798.0435180664062	1673.173706054688	277.9364318847656	1634.103271484375	1352.157348632812	345.4107666015625	1664.196166992188	1147.522705078125	416.7964782714844	1674.896484375	1255.043823242188	195.9944152832031	1629.674560546875	1242.511962890625	163.1344451904297	957.26904296875	1145.729736328125	290.9504699707031	971.7286376953125	1497.58056640625	361.9904174804688	993.4505004882812	1428.549072265625	298.6656188964844	990.4813842773438	1178.540649414062	402.6273498535156	512.7733764648438	1089.49853515625	321.1929321289062	632.5187377929688	1090.509887695312	536.3478393554688	53.22171401977539	1042.380126953125	458.1075744628906	289.9535827636719	1053.421508789062	708.0621948242188	159.4572448730469	970.1386108398438	696.4190063476562	135.3701324462891	1032.015502929688	605.70458984375	91.40012359619141	960.9356689453125	526.9539184570312	37.44443893432617	1124.699584960938	189.1120452880859	484.7630920410156	1495.271606445312	302.1883544921875	738.8980102539062	1500.231323242188	-56.9794921875	49.26686859130859	1539.549560546875	158.5152587890625	362.2379150390625	1487.70947265625	161.6918640136719	47.1348991394043	1494.635009765625	105.1674041748047	45.94866943359375	1451.220458984375	56.55614471435547	39.65121078491211	1572.814819335938	-113.8341293334961	53.26451110839844	1473.377685546875	
101	1	125.9620590209961	1015.5595703125	1401.162109375	97.65291595458984	1012.916259765625	1283.3134765625	115.2503356933594	1051.78857421875	1346.75732421875	383.2218933105469	1238.680297851562	1267.940063476562	95.478759765625	1218.152099609375	1350.388549804688	181.7572021484375	1478.395629882812	1302.488403320312	363.8675231933594	1354.331420898438	1256.539916992188	130.3990936279297	1317.341186523438	1437.80908203125	142.6038818359375	1451.653564453125	1211.454345703125	189.9845733642578	1424.556640625	1115.829833984375	113.1685028076172	1297.8623046875	1071.816040039062	76.4130859375	1088.09716796875	1071.252075195312	70.35942840576172	1078.137817382812	1162.412963867188	131.7682342529297	833.5289306640625	1066.496459960938	38.4463996887207	835.8567504882812	1072.107299804688	56.57743072509766	977.2449951171875	1062.42919921875	108.5208282470703	651.8545532226562	1097.884033203125	41.3582763671875	763.0655517578125	1071.236572265625	110.265022277832	754.9209594726562	1051.059448242188	291.0568542480469	1459.800659179688	1459.436279296875	286.6613464355469	1401.087158203125	1537.117065429688	269.8594055175781	1122.739624023438	1628.32275390625	237.0039672851562	1102.41796875	1539.237060546875	389.6073913574219	885.9580078125	1599.730712890625	331.4199523925781	879.795166015625	1667.644165039062	296.7311096191406	1052.03857421875	1647.957885742188	381.8299560546875	696.9192504882812	1594.336669921875	412.2310791015625	790.4053955078125	1612.325927734375	354.6013793945312	796.6810302734375	1668.38037109375	283.95361328125	1632.278564453125	1347.043334960938	350.7478332519531	1662.599853515625	1142.206176757812	422.3349609375	1673.726196289062	1249.534912109375	201.7464904785156	1627.389526367188	1237.628173828125	171.0920562744141	955.4601440429688	1141.341674804688	298.1083068847656	969.76220703125	1493.463012695312	369.4812927246094	991.3504638671875	1424.5947265625	306.6360473632812	988.4413452148438	1174.377807617188	409.9032592773438	510.9681396484375	1084.676025390625	328.7162170410156	630.6051635742188	1085.762329101562	544.9042358398438	51.9008903503418	1037.53076171875	465.7565307617188	288.3286743164062	1048.82470703125	714.8724975585938	158.8761291503906	962.3419189453125	704.4238891601562	134.8719329833984	1024.40625	612.7958984375	90.23812103271484	954.9345092773438	536.9189453125	36.39133834838867	1120.066284179688	193.9466400146484	483.7494812011719	1493.234741210938	308.3231811523438	737.2317504882812	1497.011352539062	-56.57032775878906	50.74008178710938	1539.825073242188	162.3770446777344	361.3072509765625	1486.387451171875	161.64892578125	47.02511596679688	1494.742919921875	105.2442626953125	46.01830673217773	1451.419311523438	56.63540649414062	39.53469848632812	1572.95361328125	-113.6515960693359	55.69908142089844	1473.801147460938	
